<?xml version="1.0" encoding="utf-8"?>
<!-- Generator: Adobe Illustrator 22.0.0, SVG Export Plug-In . SVG Version: 6.00 Build 0)  -->
<svg version="1.1" id="Capa_1" xmlns="http://www.w3.org/2000/svg" xmlns:xlink="http://www.w3.org/1999/xlink" x="0px" y="0px"
	 viewBox="0 0 190.8 190.8" style="enable-background:new 0 0 190.8 190.8;" xml:space="preserve">
<g>
	<path d="M45.9,48.8l-3.6-0.5c-0.1-1-0.4-2-0.8-2.8l2.8-2.2c0.6-0.5,0.7-1.3,0.3-1.9c-0.5-0.6-1.3-0.7-1.9-0.3l-2.8,2.2
		c-0.6-0.6-1.4-1-2.2-1.3c-0.1,0-0.2-0.1-0.4-0.1l0.5-3.5c0.1-0.8-0.4-1.4-1.2-1.5c-0.8-0.1-1.4,0.4-1.5,1.2l-0.5,3.6
		c-1,0.1-2,0.4-2.8,0.8l-2.2-2.8c-0.5-0.6-1.3-0.7-1.9-0.3c-0.6,0.5-0.7,1.3-0.3,1.9l2.2,2.8c-0.6,0.6-1,1.4-1.3,2.2
		c0,0.1-0.1,0.2-0.1,0.4l-3.5-0.5c-0.8-0.1-1.4,0.4-1.5,1.2c-0.1,0.6,0.3,1.2,0.9,1.5c0.1,0,0.2,0.1,0.3,0.1l3.6,0.5
		c0.1,1,0.4,2,0.8,2.8l-2.8,2.2c-0.6,0.5-0.7,1.3-0.3,1.9c0.2,0.2,0.4,0.4,0.6,0.5c0.4,0.2,0.9,0.1,1.3-0.2l2.8-2.2
		c0.6,0.6,1.4,1,2.2,1.3c0.1,0,0.2,0.1,0.4,0.1l-0.5,3.5c-0.1,0.6,0.3,1.2,0.9,1.5c0.1,0,0.2,0.1,0.3,0.1c0.8,0.1,1.4-0.4,1.5-1.2
		l0.5-3.6c1-0.1,2-0.4,2.8-0.8l2.2,2.8c0.2,0.2,0.4,0.4,0.6,0.5c0.4,0.2,0.9,0.1,1.3-0.2c0.6-0.5,0.7-1.3,0.3-1.9l-2.2-2.8
		c0.6-0.6,1-1.4,1.3-2.2c0-0.1,0.1-0.2,0.1-0.4l3.5,0.5c0.8,0.1,1.4-0.4,1.5-1.2C47.2,49.6,46.7,48.9,45.9,48.8z M39.3,50.5
		C39.3,50.5,39.3,50.5,39.3,50.5c-0.2,0.4-0.4,0.8-0.7,1.2c-0.4-0.1-0.8,0-1.2,0.2c-0.4,0.3-0.5,0.7-0.5,1.1
		c-0.4,0.2-0.9,0.3-1.3,0.4c-0.2-0.3-0.6-0.6-1-0.7c-0.5-0.1-0.9,0.1-1.2,0.4c-0.4-0.2-0.8-0.4-1.2-0.7c0.1-0.4,0-0.8-0.2-1.2
		c-0.3-0.4-0.7-0.5-1.1-0.5c-0.2-0.4-0.3-0.9-0.4-1.3c0.3-0.2,0.6-0.6,0.7-1c0.1-0.5-0.1-0.9-0.4-1.2c0,0,0,0,0,0
		c0.2-0.4,0.4-0.8,0.7-1.2c0.4,0.1,0.8,0,1.2-0.2c0.4-0.3,0.5-0.7,0.5-1.1c0.4-0.2,0.9-0.3,1.3-0.4c0.2,0.3,0.4,0.5,0.7,0.6
		c0.1,0,0.2,0.1,0.3,0.1c0.5,0.1,0.9-0.1,1.2-0.4c0.4,0.2,0.8,0.4,1.2,0.7c-0.1,0.4,0,0.8,0.2,1.2c0.2,0.2,0.4,0.4,0.6,0.5
		C38.8,47,39,47,39.2,47c0.2,0.4,0.3,0.9,0.4,1.3c-0.4,0.2-0.6,0.6-0.7,1C38.8,49.8,39,50.2,39.3,50.5z"/>
	<path d="M186.1,79.6c-4.9-5.8-11.7-8.3-15.1-5.4c-1.7,1.4-0.9,3.4-0.4,4.8c0.7,1.8,1,2.9,0.1,4.1c-1.1,1.4-3.9,1.6-6.9,1.9
		c-3.5,0.3-7.4,0.7-10.1,3c-7.3,6.1-7.2,16.7-6.8,21.2c-3.3,0.4-7.3,0.3-12-0.2c5.9-2.3,9.8-7,11-13.7c0.2-0.9-0.4-1.7-1.3-1.8
		c-0.9-0.2-1.7,0.4-1.8,1.3c-1.5,8.5-8,13.1-18.3,12.9c-0.1,0-0.1,0.1-0.2,0.1c-0.4,0-0.8-0.1-1.2-0.2c-3.2-0.5-6.5-1-9.9-1.2
		c5.2-2.2,8.7-6.1,11.4-10.5c0.2-0.2,0.4-0.4,0.6-0.7c0.1-0.2,0.1-0.4,0.2-0.6c1.5-2.6,2.8-5.4,4-8c0.1-0.3,0.3-0.5,0.4-0.8
		c0.1-0.1,0.1-0.1,0.2-0.2c4.2-6.7,9.8-9,15.8-6.4c0.8,0.3,1.7,0,2-0.8c0.3-0.8,0-1.7-0.8-2c-4.5-1.9-8.8-1.7-12.6,0.5
		c1.3-2.3,3.7-4.9,5.1-6.7c0,0.1,0.1,0.2,0.1,0.2c0.4,0.7,0.8,1.3,1.4,1.9c0.8,0.7,1.7,1.1,2.8,1.4c1.4,0.3,5.9,1.8,7.3,2.4
		c0.9,0.4,2,0.6,3,0.5c1.4-0.1,2.7-0.7,3.7-1.6c1.1,0.8,2.5,1.1,3.9,1c0.6,0,1.1-0.2,1.7-0.4c0.4-0.2,0.9-0.4,1.2-0.6
		c1.3-0.8,2.1-2.1,2.5-3.4c2.3,0.8,5.2,0.1,6.8-1.8c0.9-1.1,4.1-4.7,5-5.8c0.7-0.8,1.1-1.7,1.4-2.8c0.3-1.4,0.1-3-0.6-4.2
		c1.3-0.6,2.4-1.7,3-3c0.4-1,0.6-2,0.5-3c-0.1-1.4-0.7-2.7-1.6-3.7c0.8-1.1,1.1-2.5,1-3.9c-0.1-1-0.4-2-1-2.9
		c-0.8-1.2-2.9-5.4-3.4-6.8c-0.4-1-1-1.8-1.8-2.5c-1.1-0.9-2.4-1.4-3.7-1.5c-0.3-1.4-1-2.6-2-3.5c-0.8-0.7-1.8-1.2-2.8-1.4
		c-1.4-0.3-2.9-0.1-4.2,0.6c-0.6-1.3-1.7-2.4-3-3c-1-0.4-2-0.6-3-0.5c-1.4,0.1-6.2,0.5-7.6,0.6c-1,0.1-2.1,0.4-2.9,1
		c-1.2,0.8-2.1,2.1-2.5,3.4c-2.3-0.8-5.1-0.2-6.8,1.8c-0.9,1.1-1.4,2.4-1.5,3.7c-1.3,0.3-2.6,1-3.5,2c-0.7,0.8-1.1,1.7-1.4,2.8
		c-0.3,1.5-1.8,5.9-2.4,7.2c-0.4,1-0.6,2-0.5,3c0.1,1.4,0.7,2.7,1.6,3.7c-0.8,1.1-1.1,2.5-1,3.9c0.1,1,0.4,2.1,1,2.9
		c0.8,1.2,2.9,5.4,3.5,6.8c0.4,1,1,1.9,1.8,2.5c0.5,0.5,1.1,0.8,1.8,1c-2.3,3.1-6,7.9-7.6,11c-1,1.8-1.8,3.8-2.7,5.7
		c-0.4-3-1.8-5.7-4-7.8c2.9-0.4,6.8-2.1,8.3-8.2c1.9-7.9-3.3-12.2-13.5-17.4c-3.7-1.9-7-4.6-11.5-11.3c-0.1-0.1-0.1-0.1-0.2-0.2
		c-0.1-0.1-0.2-0.2-0.3-0.2c-0.3-0.2-0.6-0.3-0.9-0.3c0,0,0,0,0,0s0,0,0,0c-0.4,0-0.7,0.2-0.9,0.5c0,0.1-0.1,0.1-0.2,0.2
		c0,0.1-0.1,0.1-0.2,0.2c-0.4,0.8-9,21.2-3.1,33.4c2,4.1,5.3,6.8,10,8c0.4,0.1,0.9,0.2,1.4,0.2c1.7,0,4.1-0.6,5.8-2.3
		c0.6-0.6,1-1.3,1.3-2c5,3.3,6.4,8.7,3.9,15.5c-3.1,5.5-7.2,9.8-14.3,11.2c-3.6,0.7-7.1,0-10.2-1.7c3.5-3.4,5.8-8,6.2-13.3
		c0.1-0.9-0.6-1.6-1.4-1.7c-0.8-0.1-1.6,0.6-1.7,1.4c-0.4,4.7-2.5,8.8-5.6,11.7c-3.2-2.9-5.2-7-5.6-11.7c-0.1-0.9-0.8-1.5-1.7-1.4
		c-0.9,0.1-1.5,0.8-1.4,1.7c0.4,5.3,2.7,9.9,6.2,13.3c-3,1.7-6.5,2.4-10.2,1.7c-7.1-1.4-11.2-5.7-14.3-11.2
		c-2.5-6.8-1.1-12.2,3.9-15.5c0.3,0.7,0.7,1.4,1.3,2c1.7,1.7,4.1,2.3,5.8,2.3c0.6,0,1-0.1,1.4-0.2c4.7-1.2,8-4,10-8
		c5.9-12.2-2.8-32.6-3.1-33.4c0-0.1-0.1-0.1-0.2-0.2c0-0.1-0.1-0.1-0.2-0.2c-0.2-0.3-0.5-0.5-0.9-0.5c0,0,0,0,0,0s0,0,0,0
		c-0.3,0-0.6,0.1-0.9,0.3c-0.1,0.1-0.2,0.1-0.3,0.2c-0.1,0.1-0.1,0.1-0.2,0.2c-4.5,6.7-7.9,9.4-11.5,11.3C63.2,56.7,58,61,60,68.9
		c1.5,6.2,5.4,7.9,8.3,8.2c-2.2,2.2-3.6,4.8-4,7.8c-0.9-2-1.8-3.9-2.7-5.7c-1.6-3.1-5.3-7.9-7.6-11c0.7-0.2,1.3-0.5,1.8-1
		c0.8-0.7,1.4-1.6,1.8-2.5c0.5-1.4,2.6-5.6,3.5-6.8c0.6-0.9,0.9-1.9,1-2.9c0.1-1.4-0.3-2.8-1-3.9c0.9-1,1.5-2.3,1.6-3.7
		c0.1-1-0.1-2.1-0.5-3c-0.6-1.3-2.1-5.8-2.4-7.2c-0.2-1.1-0.7-2-1.4-2.8c-0.9-1-2.1-1.8-3.5-2c-0.1-1.4-0.6-2.7-1.5-3.7
		c-1.7-1.9-4.5-2.6-6.8-1.8c-0.4-1.4-1.3-2.6-2.5-3.4c-0.9-0.6-1.9-0.9-2.9-1c-1.4-0.1-6.2-0.5-7.6-0.6c-1.1-0.1-2.1,0.1-3,0.5
		c-1.4,0.6-2.4,1.7-3,3c-1.3-0.7-2.8-0.9-4.2-0.6c-1,0.2-2,0.7-2.8,1.4c-1.1,0.9-1.8,2.1-2,3.5c-1.4,0.1-2.7,0.6-3.7,1.5
		c-0.8,0.7-1.4,1.5-1.8,2.5c-0.5,1.4-2.6,5.6-3.4,6.8c-0.6,0.9-0.9,1.9-1,2.9c-0.1,1.4,0.3,2.8,1,3.9c-0.9,1-1.5,2.3-1.6,3.7
		c-0.1,1.1,0.1,2.1,0.5,3c0.6,1.3,1.7,2.4,3,3c-0.7,1.3-0.9,2.8-0.6,4.2c0.2,1,0.7,2,1.4,2.8c0.9,1,4,4.7,5,5.8
		c1.6,1.9,4.5,2.6,6.8,1.8c0.4,1.4,1.3,2.6,2.5,3.4c0.4,0.3,0.8,0.5,1.2,0.6c0.5,0.2,1.1,0.3,1.7,0.4c1.4,0.1,2.8-0.3,3.9-1
		c1,0.9,2.3,1.5,3.7,1.6c1,0.1,2.1-0.1,3-0.5c1.3-0.6,5.8-2.1,7.3-2.4c1-0.2,2-0.7,2.8-1.4c0.6-0.5,1.1-1.2,1.4-1.9
		c0,0,0-0.1,0.1-0.2c1.4,1.8,3.8,4.4,5.1,6.7c-3.8-2.2-8.2-2.4-12.6-0.5c-0.8,0.4-1.2,1.3-0.8,2c0.3,0.8,1.3,1.2,2,0.8
		c6-2.6,11.6-0.4,15.8,6.4c0,0.1,0.1,0.1,0.2,0.2c0.1,0.3,0.2,0.5,0.4,0.8c1.2,2.7,2.5,5.4,4,8c0.1,0.2,0.1,0.4,0.2,0.6
		c0.1,0.3,0.3,0.5,0.6,0.7c2.7,4.4,6.2,8.3,11.4,10.5c-3.3,0.3-6.7,0.8-9.9,1.2c-0.4,0.1-0.8,0.1-1.2,0.2c-0.1,0-0.1-0.1-0.2-0.1
		C56,107.8,49.4,103.3,48,94.7c-0.1-0.8-0.9-1.4-1.8-1.3c-0.9,0.1-1.4,0.9-1.3,1.8c1.2,6.7,5.1,11.4,11,13.7
		c-4.7,0.4-8.6,0.6-12,0.2c0.4-4.5,0.5-15.1-6.8-21.2c-2.7-2.3-6.6-2.6-10.1-3c-3-0.3-5.8-0.5-6.9-1.9c-0.9-1.2-0.6-2.3,0.1-4.1
		c0.5-1.4,1.3-3.4-0.4-4.8c-3.4-2.8-10.2-0.3-15.1,5.4c-5,6-6.2,12.9-2.8,15.8c1.4,1.1,3.2,0.5,4.8-0.4c1.3-0.8,2.7-1.5,4-0.8
		c1.5,0.9,2.3,3.6,3.1,6.5c0.9,3.3,1.9,7.1,4.6,9.4c3.4,2.8,7.8,4.3,13.2,4.3c5.9,0,10.8-1.8,11-1.8c0.2-0.1,0.4-0.2,0.5-0.4
		c5,0.7,10.6,0.2,16.7-0.4c2.7-0.3,5.6-0.7,8.4-1.2c0.4,0,0.8-0.1,1.1-0.2c-3.8,2.8-6.1,6.7-6.8,11.4c-1.9-2.5-4.9-4.7-9.2-4.7
		c-1.7,0-3.6,0.4-5.6,1c-9.5,3.4-10.5,11.5-8.9,26.2c0.5,5.3,0.1,10.8-4,20.5c0,0.1,0,0.2,0,0.3c0,0.1,0,0.2,0,0.3
		c0,0.4,0.1,0.7,0.3,1h0c0,0,0,0,0,0c0.3,0.4,0.8,0.6,1.2,0.6c0.1,0,0.2,0,0.3,0c1.2-0.2,28.9-5.2,37.8-19.9
		c2.9-4.9,3.5-10.3,1.6-16c-0.8-2.5-4.3-6.1-8.6-6.1c-0.6,0-1.2,0.2-1.8,0.3c-0.3-8.2,4.7-13.9,14.2-16c4.1-0.2,8.1,0,11.9,1.2
		c-1.9,1.2-3.7,2.5-5.4,4.3c-4.6,4.7-6.8,10.8-6.4,17.2c0.5,7,4.2,13.7,10.3,18.4c0.3,0.2,0.6,0.3,1,0.3c0.5,0,0.9-0.2,1.2-0.6
		c0.5-0.7,0.4-1.7-0.3-2.2c-5.3-4.2-8.6-10.1-9.1-16.2c-0.4-5.5,1.6-10.7,5.5-14.8c2.2-2.2,4.5-3.8,6.9-5c2.4,1.2,4.7,2.8,6.9,5
		c3.9,4.1,5.9,9.3,5.5,14.8c-0.4,6.2-3.7,12.1-9.1,16.2c-0.7,0.5-0.8,1.5-0.3,2.2c0.3,0.4,0.8,0.6,1.2,0.6c0.3,0,0.7-0.1,1-0.3
		c6-4.7,9.8-11.4,10.3-18.4c0.5-6.4-1.8-12.5-6.4-17.2c-1.7-1.8-3.5-3.1-5.4-4.3c3.8-1.1,7.8-1.4,11.9-1.2c9.5,2.1,14.5,7.8,14.2,16
		c-0.6-0.2-1.2-0.3-1.8-0.3c-4.3,0-7.8,3.6-8.6,6.1c-1.9,5.7-1.4,11.1,1.6,16c8.8,14.7,36.6,19.7,37.8,19.9c0.1,0,0.2,0,0.3,0
		c0.5,0,0.9-0.2,1.2-0.6c0,0,0,0,0,0h0c0.2-0.3,0.3-0.6,0.3-1c0-0.1,0-0.1,0-0.3c0-0.1,0-0.2,0-0.3c-4.1-9.6-4.6-15.1-4-20.5
		c1.5-14.7,0.6-22.8-8.9-26.2c-2-0.7-3.8-1-5.6-1c-4.3,0-7.3,2.2-9.2,4.7c-0.6-4.7-3-8.6-6.8-11.4c0.4,0,0.8,0.1,1.1,0.2
		c2.8,0.5,5.7,0.9,8.4,1.2c6.1,0.6,11.7,1.1,16.7,0.4c0.1,0.2,0.3,0.3,0.5,0.4c0.2,0.1,5.1,1.8,11,1.8c5.4,0,9.8-1.5,13.2-4.3
		c2.7-2.3,3.7-6.1,4.6-9.4c0.8-2.9,1.5-5.7,3.1-6.5c1.3-0.7,2.7,0,4,0.8c1.6,0.9,3.5,1.6,4.8,0.4C192.3,92.5,191.1,85.5,186.1,79.6z
		 M136,63.6c-0.5-1.2-2.9-6.1-3.7-7.2c-0.3-0.5-0.5-1.1-0.6-1.7c-0.1-1.1,0.3-2.1,1.1-2.9c0.3-0.2,0.4-0.6,0.4-1
		c0-0.4-0.2-0.7-0.5-0.9c-0.9-0.6-1.5-1.6-1.5-2.7c0-0.6,0.1-1.2,0.3-1.8c0.5-1.1,2.2-6.4,2.5-7.6c0.1-0.6,0.4-1.2,0.8-1.6
		c0.7-0.8,1.8-1.3,2.8-1.3c0.4,0,0.7-0.2,1-0.4c0.2-0.3,0.3-0.7,0.3-1c-0.2-1.1,0.1-2.2,0.8-3c1.3-1.5,3.6-1.7,5-0.4
		c0.4,0.3,0.9,0.4,1.3,0.1c0.4-0.2,0.7-0.7,0.7-1.1c-0.1-1.3,0.6-2.5,1.6-3.2c0.5-0.3,1.1-0.5,1.7-0.6c1.1-0.1,6.4-0.5,7.5-0.6
		c0.6,0,1.2,0.1,1.8,0.3c1.2,0.5,2,1.6,2.1,2.9c0.1,0.5,0.4,0.9,0.8,1c0.5,0.2,1,0,1.3-0.3c0.9-0.9,2.2-1.4,3.4-1.1
		c0.6,0.1,1.1,0.4,1.6,0.8c0.8,0.7,1.3,1.7,1.3,2.8c0,0.4,0.2,0.7,0.4,1c0.3,0.2,0.6,0.3,1,0.3c1.1-0.2,2.2,0.1,3,0.8
		c0.5,0.4,0.8,0.9,1,1.5c0.5,1.2,2.9,6.1,3.6,7.2c0.3,0.5,0.5,1.1,0.6,1.7c0.1,1.1-0.3,2.1-1.1,2.9c-0.3,0.2-0.4,0.6-0.4,1
		c0,0.4,0.2,0.7,0.5,0.9c0.9,0.6,1.5,1.6,1.5,2.7c0,0.6-0.1,1.2-0.3,1.8c-0.5,1.1-1.7,1.9-2.9,2.1c-0.5,0.1-0.9,0.4-1,0.8
		c-0.2,0.5,0,1,0.3,1.3c0.9,0.9,1.4,2.2,1.1,3.4c-0.1,0.6-0.4,1.2-0.8,1.6c-0.7,0.8-4.2,4.9-4.9,5.7c-1.3,1.5-3.6,1.6-5,0.5
		c-0.3-0.3-0.8-0.3-1.2-0.2c0,0-0.1,0-0.1,0.1c-0.4,0.2-0.7,0.7-0.7,1.2c0.1,1.3-0.6,2.5-1.6,3.2c-0.5,0.3-1.1,0.5-1.7,0.6
		c-1.1,0.1-2.1-0.3-2.9-1.1c-0.3-0.3-0.6-0.4-1-0.4c-0.4,0-0.7,0.2-0.9,0.5c-0.6,0.9-1.6,1.5-2.7,1.5c-0.6,0-1.2-0.1-1.8-0.3
		c-1.2-0.5-6.4-2.2-7.7-2.5c-0.6-0.1-1.2-0.4-1.6-0.8c-0.8-0.7-1.3-1.7-1.3-2.8c0-0.2-0.1-0.7-0.5-1c-0.3-0.2-0.8-0.3-1-0.2
		c-1.1,0.2-2.2-0.1-3-0.8C136.6,64.6,136.2,64.1,136,63.6z M120,56.4c0.9,0.5,1.8,1.1,2.6,1.6l-8.9,10.9c-0.4-0.7-0.9-1.5-1.3-2.3
		L120,56.4z M116,54.2c0.4,0.2,0.8,0.4,1.2,0.7l-6.2,8.3c-0.3-0.8-0.6-1.7-0.9-2.5l4.9-7C115.3,53.9,115.7,54.1,116,54.2z M112.4,52
		l-3.4,4.9c-0.2-1-0.5-1.9-0.7-2.9l2.4-3.3C111.3,51.2,111.8,51.6,112.4,52z M108.4,48.5l-1,1.4c-0.2-1.1-0.4-2.2-0.6-3.2
		C107.4,47.3,107.9,47.9,108.4,48.5z M103.9,47.7c0.1,0.7,0.2,1.5,0.4,2.3l-0.8-0.8C103.6,48.7,103.7,48.2,103.9,47.7z M102.5,52.6
		l2.7,2.5c0,0,0,0,0,0c0.2,0.7,0.4,1.5,0.5,2.2l-3.9-2.3C102.2,54.2,102.3,53.4,102.5,52.6z M101.5,58.4l5.6,3.3
		c0.2,0.6,0.4,1.2,0.6,1.8l-6.6-2.3C101.2,60.3,101.3,59.3,101.5,58.4z M101.1,64.5l8.1,2.8c0.3,0.7,0.7,1.4,1.1,2.1l-8.8-0.9
		C101.3,67.2,101.2,65.9,101.1,64.5z M104.1,74.6c-0.5-0.6-0.9-1.3-1.3-2.1c-0.1-0.2-0.2-0.5-0.3-0.8l10,1c0.4,0.5,0.9,1.1,1.3,1.5
		l-9.6,0.3C104.2,74.6,104.2,74.6,104.1,74.6z M115,77.6c-0.9,1-2.5,1.4-3.6,1.4c-0.3,0-0.6-0.1-0.6-0.1c-1.2-0.3-2.3-0.8-3.3-1.4
		l7.6-0.2C115.2,77.4,115.1,77.5,115,77.6z M117.6,73.1c-0.7-0.4-1.4-0.9-2.1-1.6l9.5-11.6c0.8,0.7,1.4,1.4,1.9,2.1L117.6,73.1z
		 M120.9,74.1l7.1-8.6c0.1,0.8,0,1.7-0.2,2.6c-1,4-3.2,6-6.7,6C121.1,74.1,121,74.1,120.9,74.1z M80,78.9c-0.1,0-0.3,0.1-0.6,0.1
		c-1.1,0-2.6-0.4-3.6-1.4c-0.1-0.1-0.1-0.2-0.2-0.3l7.6,0.2C82.2,78.1,81.2,78.6,80,78.9z M88,72.5c-0.4,0.8-0.8,1.4-1.3,2.1
		c-0.1,0-0.1-0.1-0.1-0.1L77,74.3c0.4-0.4,0.9-1,1.3-1.5l10-1C88.1,72,88.1,72.3,88,72.5z M89.2,68.6l-8.8,0.9
		c0.4-0.7,0.7-1.4,1.1-2.1l8.1-2.8C89.6,65.9,89.5,67.2,89.2,68.6z M89.6,61.2l-6.6,2.3c0.2-0.6,0.4-1.2,0.6-1.8l5.6-3.3
		C89.5,59.3,89.6,60.3,89.6,61.2z M86.9,47.7c0.1,0.5,0.3,1,0.4,1.5L86.5,50C86.7,49.2,86.8,48.4,86.9,47.7z M85.5,55.2
		C85.5,55.1,85.5,55.2,85.5,55.2l2.8-2.5c0.2,0.8,0.4,1.6,0.5,2.5l-3.9,2.3C85.1,56.6,85.3,55.9,85.5,55.2z M83.9,46.7
		c-0.2,1-0.4,2.1-0.6,3.2l-1-1.4C82.9,47.9,83.4,47.3,83.9,46.7z M80.1,50.7l2.4,3.3c-0.2,0.9-0.4,1.9-0.7,2.9L78.4,52
		C79,51.6,79.5,51.2,80.1,50.7z M74.8,54.2c0.3-0.2,0.7-0.4,1-0.6l4.9,7c-0.3,0.9-0.6,1.7-0.9,2.5l-6.2-8.3
		C74,54.7,74.4,54.5,74.8,54.2z M70.9,56.4l7.6,10.2c-0.4,0.8-0.8,1.6-1.3,2.3L68.3,58C69,57.5,69.9,56.9,70.9,56.4z M65.8,59.9
		l9.5,11.6c-0.6,0.7-1.4,1.3-2.1,1.6L64,62C64.4,61.3,65,60.6,65.8,59.9z M63,68.1c-0.2-0.9-0.3-1.8-0.2-2.6l7.1,8.6
		c-0.1,0-0.1,0-0.2,0C66.2,74.1,63.9,72.1,63,68.1z M50.8,65.9c-0.2,0-0.7,0-1,0.2c-0.3,0.3-0.5,0.8-0.5,1c0,1.1-0.5,2.1-1.3,2.8
		c-0.5,0.4-1,0.7-1.6,0.8c-1.3,0.3-6.5,2-7.7,2.5c-0.6,0.3-1.2,0.4-1.8,0.3C36,73.5,35,72.9,34.3,72c-0.2-0.3-0.5-0.5-0.9-0.5
		c-0.4,0-0.7,0.1-1,0.4c-0.8,0.8-1.8,1.2-2.9,1.1c-0.6,0-1.2-0.3-1.7-0.6c-1.1-0.7-1.7-1.9-1.6-3.2c0-0.5-0.2-0.9-0.7-1.2
		c0,0-0.1,0-0.1-0.1c-0.4-0.1-0.9-0.1-1.2,0.2c-1.5,1.2-3.8,1.1-5-0.5c-0.7-0.8-4.2-4.9-4.9-5.7c-0.4-0.5-0.7-1-0.8-1.6
		c-0.3-1.3,0.2-2.6,1.1-3.4c0.4-0.3,0.5-0.8,0.3-1.3c-0.2-0.5-0.5-0.8-1-0.8c-1.2-0.1-2.4-1-2.9-2.1c-0.3-0.6-0.4-1.2-0.3-1.8
		c0.1-1.1,0.6-2.1,1.5-2.7c0.3-0.2,0.5-0.6,0.5-0.9c0-0.4-0.1-0.7-0.4-1c-0.8-0.8-1.2-1.8-1.1-2.9c0-0.6,0.2-1.2,0.6-1.7
		c0.7-1.1,3.2-6,3.6-7.2c0.2-0.6,0.6-1.1,1-1.5c0.8-0.7,1.9-1,3-0.8c0.4,0.1,0.7,0,1-0.3c0.3-0.2,0.4-0.6,0.4-1
		c0-1.1,0.5-2.1,1.3-2.8c0.5-0.4,1-0.7,1.6-0.8c1.2-0.3,2.6,0.2,3.4,1.1c0.3,0.4,0.8,0.5,1.3,0.3c0.5-0.2,0.8-0.6,0.8-1
		c0.1-1.3,0.9-2.4,2.1-2.9c0.6-0.3,1.2-0.4,1.8-0.3c1.1,0.1,6.4,0.5,7.5,0.6c0.6,0,1.2,0.2,1.7,0.6c1.1,0.7,1.7,1.9,1.6,3.2
		c0,0.5,0.2,0.9,0.7,1.1c0.4,0.2,0.9,0.2,1.3-0.1c1.5-1.2,3.8-1,5,0.4c0.7,0.8,1,1.9,0.8,3c-0.1,0.4,0,0.7,0.3,1
		c0.2,0.3,0.6,0.4,1,0.4c1.1,0,2.1,0.4,2.8,1.3c0.4,0.5,0.7,1,0.8,1.6c0.3,1.3,2,6.5,2.5,7.6c0.3,0.6,0.4,1.2,0.3,1.8
		c-0.1,1.1-0.6,2.1-1.5,2.7c-0.3,0.2-0.5,0.6-0.5,0.9c0,0.4,0.1,0.7,0.4,1c0.8,0.8,1.2,1.8,1.1,2.9c0,0.6-0.2,1.2-0.6,1.7
		c-0.7,1.1-3.2,6-3.7,7.2c-0.2,0.6-0.5,1.1-1,1.5C53,65.7,51.9,66,50.8,65.9z M40.9,108.5c-2.9-0.9-5.3-2.4-7.4-5.1
		c1.9-2.6,1.6-6.2-0.8-8.4c-2.5-2.3-6.8-2.1-9.1,0.4c-1.2,1.3-1.7,2.9-1.7,4.6c0.1,1.7,0.8,3.3,2.1,4.4c1.2,1.1,2.7,1.7,4.3,1.7
		c1,0,1.9-0.3,2.8-0.7c1.9,2.4,4.1,4,6.6,5.1c-1.7,0.3-3.8,0.7-6.1,0.7c-4.6,0-8.4-1.2-11.2-3.5c-1.9-1.6-2.8-4.8-3.6-7.8
		c-1-3.6-1.9-6.9-4.6-8.4c-0.9-0.5-1.8-0.7-2.7-0.7c-1.8,0-3.2,0.8-4.3,1.5C4.7,92.5,4,92.9,3.9,93C2.2,91.5,3,86.4,7.1,81.6
		c3.2-3.9,6.9-5.6,9-5.6c0.7,0,1.3,0.2,1.6,0.4c0,0.2-0.3,1-0.4,1.5c-0.7,1.8-1.7,4.5,0.4,7.1c1.9,2.4,5.4,2.7,9.1,3
		c3.1,0.3,6.4,0.6,8.3,2.2C41.1,95.2,41.2,104.3,40.9,108.5z M30.8,102c-1.2,1.3-3.4,1.4-4.7,0.2c-0.6-0.6-1-1.4-1.1-2.3
		c0-0.9,0.3-1.7,0.9-2.4c0.6-0.7,1.5-1.1,2.5-1.1c0.8,0,1.6,0.3,2.2,0.9C31.9,98.5,32,100.6,30.8,102z M48.9,121.1
		c1.6-0.6,3.1-0.9,4.5-0.9c4.3,0,6.6,2.8,7.7,5.1l-16.2-1.9C46,122.4,47.3,121.7,48.9,121.1z M42.9,126.4l19.1,2.2
		c0.2,1.3,0.1,2.7-0.4,4.3l-19.9-2.1C42,129,42.4,127.6,42.9,126.4z M41.5,133.8l19,2c-0.6,1.2-1.2,2.5-2.1,3.8l-16.9-1
		C41.5,136.8,41.5,135.3,41.5,133.8z M41.3,155.7l3.5,0.2c-1.7,1.7-3.4,3.2-4.9,4.6C40.4,158.7,40.9,157.1,41.3,155.7z M46.3,161.3
		c-1.5,0.5-2.8,0.9-4.1,1.2c1.4-1.2,2.9-2.7,4.6-4.3L46.3,161.3z M41.9,152.6c0.2-1.3,0.3-2.5,0.3-3.6l9,0.3
		c-1.1,1.2-2.3,2.4-3.4,3.6L41.9,152.6z M49.7,160.1l0.9-5.4c0-0.1-0.1-0.1-0.1-0.2c1-1,1.9-2,2.8-3.1l0.3,7.1
		C52.3,159.2,51,159.7,49.7,160.1z M42.2,145.8c0-0.6,0-1.3-0.1-1.8c-0.1-0.8-0.1-1.5-0.2-2.2l14.6,0.9c-0.9,1.2-1.8,2.4-2.8,3.5
		L42.2,145.8z M56.8,157.3l-0.4-9.3c0.7-0.9,1.4-1.8,2.1-2.7l2.4,9.7c0,0,0.1,0.1,0.1,0.1C59.6,155.9,58.2,156.6,56.8,157.3z
		 M63.6,153.4l-2.9-11.5c0.7-1.2,1.4-2.3,2-3.5l5.8,11.1C67.1,150.9,65.4,152.2,63.6,153.4z M67.4,128c2.8,0,5.2,2.6,5.6,4
		c0.7,2.1,0.9,4,0.9,6l-6.9-9.9C67.1,128.1,67.3,128,67.4,128z M72.9,142c0.1,0.1,0.2,0.1,0.4,0.2c-0.4,1.1-0.9,2.2-1.5,3.2
		c-0.3,0.5-0.8,0.9-1.1,1.4l-6.4-12.2c0.4-1.3,0.7-2.5,0.8-3.7L72.9,142z M95.4,108.4L95.4,108.4L95.4,108.4c-1.3-0.5-2.7-1-4.1-1.4
		c1.4-0.5,2.8-1.2,4-2c1.3,0.8,2.6,1.6,4,2C98.1,107.3,96.7,107.8,95.4,108.4z M117.8,132c0.4-1.4,2.8-4,5.6-4
		c0.1,0,0.3,0.1,0.4,0.1l-6.9,9.9C116.9,136.1,117.1,134.1,117.8,132z M134,157.3c-1.4-0.7-2.8-1.4-4.2-2.1c0-0.1,0.1-0.1,0.1-0.1
		l2.4-9.7c0.7,0.9,1.4,1.8,2.1,2.7L134,157.3z M134.3,142.6l14.6-0.9c-0.1,0.8-0.1,1.4-0.2,2.2c-0.1,0.6-0.1,1.2-0.1,1.8l-11.6,0.4
		C136.1,145,135.2,143.8,134.3,142.6z M137.1,158.6l0.3-7.1c0.9,1.1,1.9,2.1,2.8,3.1c0,0.1-0.1,0.1-0.1,0.2l0.9,5.4
		C139.8,159.7,138.5,159.2,137.1,158.6z M139.6,149.2l9-0.3c0.1,1.1,0.1,2.3,0.3,3.6l-5.9,0.3C141.9,151.7,140.8,150.5,139.6,149.2z
		 M144.5,161.3l-0.5-3.1c1.7,1.6,3.2,3.1,4.6,4.3C147.3,162.1,145.9,161.7,144.5,161.3z M150.9,160.4c-1.5-1.3-3.2-2.9-4.9-4.6
		l3.5-0.2C149.9,157.1,150.4,158.7,150.9,160.4z M149.2,138.6l-16.9,1c-0.8-1.3-1.5-2.6-2.1-3.8l19-2
		C149.3,135.3,149.3,136.8,149.2,138.6z M137.4,120.2c1.4,0,2.9,0.3,4.5,0.9c1.6,0.6,2.9,1.3,4,2.3l-16.2,1.9
		C130.8,123,133.1,120.2,137.4,120.2z M128.8,128.5l19.1-2.2c0.5,1.2,1,2.6,1.2,4.4l-19.9,2.1C128.7,131.3,128.6,129.8,128.8,128.5z
		 M130.1,141.9l-2.9,11.5c-1.8-1.2-3.5-2.5-4.9-3.9l5.8-11.1C128.7,139.5,129.3,140.7,130.1,141.9z M126.5,134.6l-6.4,12.2
		c-0.3-0.5-0.8-0.9-1.1-1.4c-0.6-1-1.1-2.1-1.5-3.2c0.1-0.1,0.3,0,0.4-0.2l7.8-11.1C125.8,132.1,126.1,133.3,126.5,134.6z M186.9,93
		c-0.1-0.1-0.8-0.5-1.2-0.7c-1.1-0.7-2.6-1.5-4.3-1.5c-0.9,0-1.8,0.2-2.7,0.7c-2.7,1.5-3.6,4.9-4.6,8.4c-0.8,3-1.7,6.2-3.6,7.8
		c-2.8,2.3-6.5,3.5-11.2,3.5c-2.3,0-4.4-0.3-6.1-0.7c2.5-1.1,4.7-2.7,6.6-5.1c0.9,0.4,1.8,0.7,2.8,0.7c1.6,0,3.2-0.6,4.3-1.7
		c1.3-1.2,2-2.8,2.1-4.4c0.1-1.7-0.5-3.4-1.7-4.6c-2.3-2.5-6.6-2.7-9.1-0.4c-2.4,2.2-2.7,5.8-0.8,8.4c-2.1,2.6-4.5,4.2-7.4,5.1
		c-0.3-4.2-0.2-13.2,5.7-18.2c2-1.6,5.2-1.9,8.3-2.2c3.7-0.3,7.1-0.7,9.1-3c2.1-2.6,1.1-5.3,0.4-7.1c-0.2-0.5-0.5-1.3-0.4-1.5
		c0.3-0.2,0.9-0.4,1.6-0.4c2.1,0,5.8,1.7,9,5.6C187.8,86.4,188.6,91.5,186.9,93z M160.3,97.3c0.6-0.6,1.4-0.9,2.2-0.9
		c0.9,0,1.8,0.4,2.5,1.1c0.6,0.7,0.9,1.5,0.9,2.4c0,0.9-0.4,1.7-1.1,2.3c-1.3,1.2-3.5,1.1-4.7-0.2
		C158.8,100.6,158.9,98.5,160.3,97.3z"/>
	<path d="M145.3,51.6l3.5-0.5c0,0.1,0.1,0.2,0.1,0.4c0.3,0.8,0.8,1.6,1.3,2.2l-2.2,2.8c-0.5,0.6-0.4,1.5,0.3,1.9
		c0.4,0.3,0.9,0.4,1.3,0.2c0.2-0.1,0.4-0.2,0.6-0.5l2.2-2.8c0.9,0.5,1.8,0.7,2.8,0.8l0.5,3.6c0.1,0.8,0.8,1.3,1.5,1.2
		c0.1,0,0.2,0,0.3-0.1c0.6-0.2,1-0.8,0.9-1.5l-0.5-3.5c0.1,0,0.2-0.1,0.4-0.1c0.8-0.3,1.6-0.8,2.2-1.3l2.8,2.2
		c0.4,0.3,0.9,0.4,1.3,0.2c0.2-0.1,0.4-0.2,0.6-0.5c0.5-0.6,0.4-1.5-0.3-1.9l-2.8-2.2c0.5-0.9,0.7-1.8,0.8-2.8l3.6-0.5
		c0.1,0,0.2,0,0.3-0.1c0.6-0.2,1-0.8,0.9-1.5c-0.1-0.8-0.8-1.3-1.5-1.2l-3.5,0.5c0-0.1-0.1-0.2-0.1-0.4c-0.3-0.8-0.8-1.6-1.3-2.2
		l2.2-2.8c0.5-0.6,0.4-1.5-0.3-1.9c-0.6-0.5-1.5-0.4-1.9,0.3l-2.2,2.8c-0.9-0.5-1.8-0.7-2.8-0.8l-0.5-3.6c-0.1-0.8-0.8-1.3-1.5-1.2
		c-0.8,0.1-1.3,0.8-1.2,1.5l0.5,3.5c-0.1,0-0.2,0.1-0.4,0.1c-0.8,0.3-1.6,0.8-2.2,1.3l-2.8-2.2c-0.6-0.5-1.5-0.3-1.9,0.3
		c-0.5,0.6-0.4,1.5,0.3,1.9l2.8,2.2c-0.5,0.9-0.7,1.8-0.8,2.8l-3.6,0.5c-0.8,0.1-1.3,0.8-1.2,1.5C143.8,51.1,144.5,51.7,145.3,51.6z
		 M151.6,47c0.2,0,0.4,0,0.5-0.1c0.2-0.1,0.4-0.2,0.6-0.5c0.3-0.3,0.3-0.8,0.2-1.2c0.4-0.3,0.7-0.5,1.2-0.7c0.3,0.3,0.7,0.5,1.2,0.4
		c0.1,0,0.2,0,0.3-0.1c0.3-0.1,0.5-0.3,0.7-0.6c0.5,0.1,0.9,0.2,1.3,0.4c0,0.4,0.1,0.9,0.5,1.1c0.3,0.3,0.8,0.3,1.2,0.2
		c0.3,0.4,0.5,0.7,0.7,1.2c0,0,0,0,0,0c-0.3,0.3-0.5,0.7-0.4,1.2c0.1,0.4,0.3,0.8,0.7,1c-0.1,0.5-0.2,0.9-0.4,1.3
		c-0.4,0-0.9,0.1-1.1,0.5c-0.3,0.3-0.3,0.8-0.2,1.2c-0.4,0.3-0.7,0.5-1.2,0.7c-0.3-0.3-0.7-0.5-1.2-0.4c-0.4,0.1-0.8,0.3-1,0.7
		c-0.5-0.1-0.9-0.2-1.3-0.4c0-0.4-0.1-0.9-0.5-1.1c-0.3-0.3-0.8-0.3-1.2-0.2c-0.3-0.4-0.5-0.7-0.7-1.2c0,0,0,0,0,0
		c0.3-0.3,0.5-0.7,0.4-1.2c-0.1-0.4-0.3-0.8-0.7-1C151.3,47.9,151.4,47.4,151.6,47z"/>
</g>
</svg>
