<svg xmlns="http://www.w3.org/2000/svg" width="218.37" height="76.31" viewBox="0 0 218.37 76.31">
  <title>005-two</title>
  <path d="M39.65,25.77l-3.5.8a7.5,7.5,0,0,0-1.75-2.38l1.89-3A1.37,1.37,0,1,0,34,19.73l-1.91,3a7.16,7.16,0,0,0-2.54-.47l-.38,0-.79-3.46a1.37,1.37,0,0,0-2.68.61l.8,3.5a7.35,7.35,0,0,0-2.37,1.75l-3-1.89a1.39,1.39,0,0,0-1.9.44,1.37,1.37,0,0,0,.44,1.89l3,1.91a7.21,7.21,0,0,0-.47,2.55c0,.12,0,.25,0,.37l-3.46.79a1.38,1.38,0,0,0,.31,2.72,1.15,1.15,0,0,0,.31,0l3.5-.8A7.21,7.21,0,0,0,24.61,35l-1.88,3a1.36,1.36,0,0,0,.43,1.89,1.4,1.4,0,0,0,.73.21,1.37,1.37,0,0,0,1.16-.64l1.91-3a7.44,7.44,0,0,0,2.55.46l.37,0,.79,3.46A1.38,1.38,0,0,0,32,41.44a1.63,1.63,0,0,0,.31,0,1.38,1.38,0,0,0,1-1.65l-.8-3.5a7.39,7.39,0,0,0,2.38-1.75l3,1.89a1.37,1.37,0,0,0,1.46-2.33l-3-1.91a7.38,7.38,0,0,0,.46-2.54c0-.13,0-.25,0-.38l3.46-.79a1.37,1.37,0,1,0-.61-2.68ZM33.85,31a1.34,1.34,0,0,0-1,.61,1.38,1.38,0,0,0-.08,1.25,4.46,4.46,0,0,1-1.11.81,1.33,1.33,0,0,0-1.16-.28,1.36,1.36,0,0,0-1,.83A4.53,4.53,0,0,1,28.17,34a1.36,1.36,0,0,0-.62-1,1.38,1.38,0,0,0-1.25-.08,4.69,4.69,0,0,1-.8-1.11,1.36,1.36,0,0,0,.27-1.16,1.34,1.34,0,0,0-.83-1h0a4.47,4.47,0,0,1,.22-1.33,1.37,1.37,0,0,0,1-.63,1.32,1.32,0,0,0,.08-1.25,4.69,4.69,0,0,1,1.11-.8,1.39,1.39,0,0,0,.86.31,1.1,1.1,0,0,0,.31,0,1.34,1.34,0,0,0,1-.83,4.28,4.28,0,0,1,1.34.23,1.32,1.32,0,0,0,.61,1,1.4,1.4,0,0,0,.73.21,1.25,1.25,0,0,0,.54-.12,4.8,4.8,0,0,1,.79,1.1,1.35,1.35,0,0,0,.55,2.13h0A4.59,4.59,0,0,1,33.85,31Zm184.34-.52a61.94,61.94,0,0,1-.94-8.21,6.7,6.7,0,0,0-4.08-6.15,6.61,6.61,0,0,0-.78-4.29,6.49,6.49,0,0,0-2.29-2.42,6.6,6.6,0,0,0-4.52-.95,6.61,6.61,0,0,0-2-4.19,6.73,6.73,0,0,0-2.88-1.69L192.82.27a6.41,6.41,0,0,0-3.34-.09,6.81,6.81,0,0,0-3.87,2.55A6.8,6.8,0,0,0,178,2a6.77,6.77,0,0,0-2.92,3.25,6.72,6.72,0,0,0-4.29.77,6.53,6.53,0,0,0-2.42,2.31,63.61,63.61,0,0,1-5.14,6.46,7,7,0,0,0-1.68,2.88,6.65,6.65,0,0,0,.23,4.36,6.67,6.67,0,0,0-2.58,6.92,64.7,64.7,0,0,1,.95,8.21,6.6,6.6,0,0,0,.85,3.25,6.5,6.5,0,0,0,2.16,2.23,120.23,120.23,0,0,0-12.74,10.53c-1.8,1.74-3.56,3.62-5.34,5.53l-.91,1a15.1,15.1,0,0,0-1.58-12.27,11.33,11.33,0,0,0,3.05.46c2.63,0,6.41-1,9.55-6.05,4.83-7.68,1-13.94-8.38-23.5-3.38-3.48-6.15-7.68-8.65-16.81,0-.1-.09-.15-.14-.23a.59.59,0,0,0-.11-.19,1.32,1.32,0,0,0-.75-.54,1.23,1.23,0,0,0-.9.14.47.47,0,0,0-.2.12.67.67,0,0,0-.21.13c-.72.8-17.6,19.9-15.62,35.29a16.72,16.72,0,0,0,7.84,12.19,8.41,8.41,0,0,0,4.45,1.15,7.34,7.34,0,0,0,6.18-2.91c4.88,5.7,4.49,12.59-1,19.46-5.53,4.91-11.82,8.44-20.33,7.3a18.15,18.15,0,0,1-5.74-1.85,20.17,20.17,0,0,0,3.84-4.09,23.45,23.45,0,0,0,3-18.79,1.35,1.35,0,1,0-2.62.65,20.78,20.78,0,0,1-2.65,16.63A17,17,0,0,1,109.18,70a17.14,17.14,0,0,1-4.06-4.09,20.74,20.74,0,0,1-2.65-16.63,1.35,1.35,0,1,0-2.62-.65,23.41,23.41,0,0,0,3,18.79,19.9,19.9,0,0,0,3.84,4.09A18.15,18.15,0,0,1,101,73.39c-8.52,1.14-14.81-2.39-20.34-7.3-5.51-6.87-5.9-13.76-1-19.46a7.36,7.36,0,0,0,6.19,2.91,8.41,8.41,0,0,0,4.45-1.15A16.73,16.73,0,0,0,98.09,36.2c2-15.39-14.9-34.49-15.62-35.29a.67.67,0,0,0-.21-.13.41.41,0,0,0-.2-.12,1.21,1.21,0,0,0-.9-.14,1.3,1.3,0,0,0-.74.54.88.88,0,0,0-.12.19c0,.08-.11.13-.13.23-2.51,9.13-5.28,13.33-8.66,16.81-9.34,9.56-13.2,15.82-8.37,23.5,3.14,5,6.92,6.05,9.55,6.05a11.45,11.45,0,0,0,3-.46,15.07,15.07,0,0,0-1.59,12.27c-.3-.34-.6-.65-.91-1-1.77-1.91-3.53-3.79-5.33-5.53A120.23,120.23,0,0,0,55.17,42.61a6.5,6.5,0,0,0,2.16-2.23,6.59,6.59,0,0,0,.84-3.25,64.72,64.72,0,0,1,1-8.21A6.72,6.72,0,0,0,56.55,22a6.65,6.65,0,0,0,.23-4.36,6.87,6.87,0,0,0-1.69-2.88A63.52,63.52,0,0,1,50,8.3,6.64,6.64,0,0,0,47.53,6a6.71,6.71,0,0,0-4.29-.77A6.7,6.7,0,0,0,40.33,2a6.8,6.8,0,0,0-7.57.76A6.81,6.81,0,0,0,28.89.18a6.41,6.41,0,0,0-3.34.09L17.62,2.54a6.76,6.76,0,0,0-2.87,1.69,6.61,6.61,0,0,0-2,4.19,6.6,6.6,0,0,0-4.52.95A6.41,6.41,0,0,0,6,11.79a6.61,6.61,0,0,0-.78,4.29A6.57,6.57,0,0,0,2,19a6.51,6.51,0,0,0-.84,3.23,63.65,63.65,0,0,1-.94,8.21,6.63,6.63,0,0,0,.07,3.34,6.69,6.69,0,0,0,2.5,3.59A6.65,6.65,0,0,0,8.4,46.53a6.71,6.71,0,0,0,3.36,6.84c1.3.73,5.88,3.27,7.2,4a6.9,6.9,0,0,0,7.58-.75,6.69,6.69,0,0,0,5.37,2.71,6.4,6.4,0,0,0,1.84-.27,6.65,6.65,0,0,0,3.58-2.48,6.71,6.71,0,0,0,7.23-1.46A65.24,65.24,0,0,1,51,50a6.72,6.72,0,0,0,2.3-2.41,6.86,6.86,0,0,0,.75-2.43c2.4,1.68,6.29,4.83,9.6,7.77a15.49,15.49,0,0,0-15.54,3.51,1.35,1.35,0,0,0-.1,1.91,1.36,1.36,0,0,0,1.9.1c5.86-5.24,13.07-4.83,20.32,1.2.07.07.17,0,.25.1.25.27.5.51.76.79,2.33,2.51,4.78,5.08,7.42,7.44.15.18.26.37.42.56s.27.12.4.19c5,4.29,10.85,7.58,18.28,7.58a27.43,27.43,0,0,0,3.55-.25,20.79,20.79,0,0,0,7.83-2.71A20.9,20.9,0,0,0,117,76.06a27.41,27.41,0,0,0,3.54.25c7.43,0,13.26-3.29,18.28-7.58.13-.07.3-.07.4-.19s.28-.38.43-.56c2.64-2.36,5.09-4.93,7.42-7.44.25-.28.51-.52.76-.79.08-.06.17,0,.25-.1,7.25-6,14.46-6.44,20.32-1.2a1.36,1.36,0,0,0,1.9-.1,1.35,1.35,0,0,0-.1-1.91,15.49,15.49,0,0,0-15.54-3.51,120.3,120.3,0,0,1,9.6-7.77,6.43,6.43,0,0,0,3,4.84,64.11,64.11,0,0,1,6.48,5.14A6.72,6.72,0,0,0,181,56.6a6.65,6.65,0,0,0,3.58,2.48,6.4,6.4,0,0,0,1.84.27,6.69,6.69,0,0,0,5.37-2.71,6.88,6.88,0,0,0,7.57.75l7.21-4A6.71,6.71,0,0,0,210,46.53a6.6,6.6,0,0,0,5.88-4.82,6.59,6.59,0,0,0-.23-4.34,6.72,6.72,0,0,0,2.57-6.93Zm-166,10.62a2.42,2.42,0,0,0-1,1.81,4.05,4.05,0,0,1-1.6,4.86,80.15,80.15,0,0,0-7,5.51,3.89,3.89,0,0,1-1.72,1,4,4,0,0,1-3.37-.55,1.3,1.3,0,0,0-1.13-.18,1.35,1.35,0,0,0-.86.76A4,4,0,0,1,33,56.51a4.2,4.2,0,0,1-2,.07,4,4,0,0,1-2.92-2.7A1.35,1.35,0,0,0,27,53a.39.39,0,0,0-.15,0,1.38,1.38,0,0,0-1.16.66A4,4,0,0,1,20.27,55c-1-.56-6.17-3.43-7.2-4a3.88,3.88,0,0,1-1.44-1.38,4,4,0,0,1-.16-3.95,1.36,1.36,0,0,0-.15-1.47,1.4,1.4,0,0,0-1.39-.46A4,4,0,0,1,5.1,41a4,4,0,0,1,.55-3.36,1.34,1.34,0,0,0,.18-1.13,1.32,1.32,0,0,0-.75-.86,4,4,0,0,1-2.24-2.59,3.9,3.9,0,0,1,0-2,81.26,81.26,0,0,0,1-8.82,3.89,3.89,0,0,1,.5-1.91,4,4,0,0,1,2.76-2A1.42,1.42,0,0,0,8,17.71a1.37,1.37,0,0,0,.08-1.15,4,4,0,0,1,.24-3.41A4.12,4.12,0,0,1,9.68,11.7a4,4,0,0,1,4-.16,1.34,1.34,0,0,0,1.46-.14A1.35,1.35,0,0,0,15.58,10a4,4,0,0,1,1-3.81,3.89,3.89,0,0,1,1.73-1L26.28,2.9a4,4,0,0,1,4.91,2.65,1.33,1.33,0,0,0,1.13.93,1.31,1.31,0,0,0,1.31-.64A4.09,4.09,0,0,1,39,4.37a3.94,3.94,0,0,1,2,2.76,1.35,1.35,0,0,0,.67,1,1.4,1.4,0,0,0,1.15.08,4,4,0,0,1,3.41.25,3.85,3.85,0,0,1,1.44,1.37,82.92,82.92,0,0,0,5.5,6.91,4.15,4.15,0,0,1,1,1.72,4,4,0,0,1-.56,3.36,1.4,1.4,0,0,0-.18,1.14,1.32,1.32,0,0,0,.75.86,4,4,0,0,1,2.25,2.58,3.84,3.84,0,0,1,.05,2,86.91,86.91,0,0,0-1,8.82,3.65,3.65,0,0,1-.5,1.92A3.9,3.9,0,0,1,52.22,41.06Zm36.55,5.11a6,6,0,0,1-3,.7,5.21,5.21,0,0,1-3.68-1.41l10.73-3.22A15.69,15.69,0,0,1,88.77,46.17Zm6.65-10.29a14.38,14.38,0,0,1-.79,3.18c-.13,0-.24-.08-.37,0L82.34,42.59A16.06,16.06,0,0,0,84,39.32L95.43,34.2C95.41,34.76,95.49,35.33,95.42,35.88Zm0-4.63L84.91,35.93c.24-1.19.44-2.42.58-3.72l8.6-6.64A29.46,29.46,0,0,1,95.4,31.25ZM93.17,23c-.06,0-.13,0-.18.05l-7.26,5.6c0-1,0-2.14,0-3.21L91.35,19C92,20.26,92.63,21.6,93.17,23ZM90,16.38l-4.38,5.06c-.08-1.34-.18-2.65-.3-4,0,0,.13,0,.16-.11L88,12.93C88.65,14,89.32,15.18,90,16.38Zm-3.72-6L84.8,13c-.31-2.27-.63-4.32-.94-6.06C84.61,8,85.43,9.1,86.28,10.34Zm-5.1-3.1c.34,1.91.67,4,1,6.27l-2.75-2A41.76,41.76,0,0,0,81.18,7.24Zm-3,6.73,4.42,3.16c.15,1.51.27,3.06.37,4.61l-6.65-4.92A27.64,27.64,0,0,0,78.14,14Zm-4.69,6.21,1.15-1.24,8.46,6.25c0,1.44,0,2.84-.06,4.22L72,21.73C72.48,21.2,72.9,20.72,73.45,20.18Zm-3.32,3.55,12.63,8.8a31.67,31.67,0,0,1-.71,4L67.3,27.19C68.1,26.11,69,25,70.13,23.73Zm-4.38,5.68,15.41,9.76A9.35,9.35,0,0,1,79,42.48l-14.85-9.2h0A13.64,13.64,0,0,1,65.75,29.41Zm6.94,15.75c-2.83,0-5.27-1.61-7.26-4.78a10.13,10.13,0,0,1-1.58-4.08l12.77,7.91A9.56,9.56,0,0,1,72.69,45.16Zm64.5-37.92A44.22,44.22,0,0,0,139,11.55l-2.75,2C136.52,11.27,136.85,9.15,137.19,7.24Zm-1.38,9.89L140.23,14a26.08,26.08,0,0,0,1.86,2.85l-6.65,4.92C135.53,20.19,135.66,18.64,135.81,17.13Zm-.5,8.06,8.46-6.25c.38.43.77.84,1.15,1.24.55.54,1,1,1.46,1.55l-11,7.68C135.3,28,135.29,26.63,135.31,25.19ZM134.5,7c-.31,1.74-.63,3.79-.93,6.06l-1.49-2.68C132.94,9.1,133.76,8,134.5,7Zm-4.08,6,2.47,4.45c0,.06.12.06.16.11-.12,1.3-.23,2.61-.3,4l-4.38-5.06C129,15.18,129.72,14,130.42,12.93ZM127,19l5.6,6.45c0,1.07,0,2.17,0,3.21L125.38,23c-.06,0-.13,0-.19-.05C125.74,21.6,126.35,20.26,127,19Zm-2.74,6.62,8.61,6.64a34.88,34.88,0,0,0,.58,3.72L123,31.25A30.23,30.23,0,0,1,124.27,25.57ZM124.11,39c-.13,0-.24,0-.38,0a14.36,14.36,0,0,1-.78-3.18c-.07-.55,0-1.12,0-1.68l11.48,5.12A15.09,15.09,0,0,0,136,42.59Zm8.44,7.85a6.05,6.05,0,0,1-3-.7,15.8,15.8,0,0,1-4.08-3.93l10.73,3.22A5.22,5.22,0,0,1,132.55,46.87Zm3.06-14.34,12.62-8.8c1.12,1.24,2,2.38,2.84,3.46l-14.75,9.33A31.67,31.67,0,0,1,135.61,32.53Zm1.59,6.64,15.41-9.76a13.69,13.69,0,0,1,1.65,3.87h0l-14.85,9.2A9.37,9.37,0,0,1,137.2,39.17Zm4.55,5,12.77-7.91a10.13,10.13,0,0,1-1.58,4.08c-2,3.17-4.43,4.78-7.26,4.78A9.48,9.48,0,0,1,141.75,44.21Zm73.78-11.14a4.06,4.06,0,0,1-2.25,2.59,1.34,1.34,0,0,0-.56,2,4,4,0,0,1,.55,3.36,4.23,4.23,0,0,1-1,1.73,4.12,4.12,0,0,1-3.81,1,1.4,1.4,0,0,0-1.39.46,1.36,1.36,0,0,0-.15,1.47,4,4,0,0,1-.17,3.95A3.78,3.78,0,0,1,205.3,51c-1,.58-6.16,3.45-7.2,4a4,4,0,0,1-5.38-1.45,1.39,1.39,0,0,0-1.17-.66.44.44,0,0,0-.15,0,1.33,1.33,0,0,0-1.13.93,4,4,0,0,1-2.92,2.7,4.19,4.19,0,0,1-2-.07,4,4,0,0,1-2.57-2.23,1.34,1.34,0,0,0-.85-.76,1.3,1.3,0,0,0-1.13.18,4,4,0,0,1-3.37.55,3.89,3.89,0,0,1-1.72-1,80.15,80.15,0,0,0-7-5.51,4.13,4.13,0,0,1-1.37-1.45,4.07,4.07,0,0,1-.23-3.41,2.42,2.42,0,0,0-1-1.81,3.9,3.9,0,0,1-2.74-2,3.76,3.76,0,0,1-.51-1.92,86.89,86.89,0,0,0-1-8.82,3.84,3.84,0,0,1,.05-2,4,4,0,0,1,2.25-2.58,1.34,1.34,0,0,0,.75-.86,1.37,1.37,0,0,0-.19-1.14,4,4,0,0,1-.55-3.36,4,4,0,0,1,1-1.72,82.92,82.92,0,0,0,5.5-6.91,3.78,3.78,0,0,1,1.44-1.37,4,4,0,0,1,3.41-.25,1.4,1.4,0,0,0,1.15-.08,1.35,1.35,0,0,0,.67-1,3.94,3.94,0,0,1,2-2.76,4.09,4.09,0,0,1,5.38,1.47,1.3,1.3,0,0,0,1.31.64,1.33,1.33,0,0,0,1.13-.93,4,4,0,0,1,4.9-2.65L200,5.19a3.86,3.86,0,0,1,1.72,1A4,4,0,0,1,202.79,10a1.37,1.37,0,0,0,.46,1.39,1.34,1.34,0,0,0,1.46.14,4,4,0,0,1,4,.16A4.09,4.09,0,0,1,210,13.15a4,4,0,0,1,.25,3.41,1.33,1.33,0,0,0,.08,1.15,1.42,1.42,0,0,0,.93.67,3.93,3.93,0,0,1,2.75,2,3.8,3.8,0,0,1,.51,1.91,81.24,81.24,0,0,0,1,8.82A3.9,3.9,0,0,1,215.53,33.07Zm-15.92-2.29L196.16,30c0-.12,0-.25,0-.37a7.44,7.44,0,0,0-.46-2.55l3-1.91a1.37,1.37,0,0,0-1.46-2.33l-3,1.89A7.39,7.39,0,0,0,191.9,23l.8-3.5a1.37,1.37,0,0,0-2.68-.61l-.79,3.46-.37,0a7.12,7.12,0,0,0-2.54.47l-1.91-3a1.37,1.37,0,1,0-2.33,1.46l1.89,3a7.21,7.21,0,0,0-1.75,2.38l-3.5-.8a1.38,1.38,0,1,0-.62,2.68l3.46.79c0,.13,0,.25,0,.38a7.16,7.16,0,0,0,.47,2.54l-3,1.91a1.38,1.38,0,0,0-.44,1.9,1.38,1.38,0,0,0,1.9.43l3-1.89a7.45,7.45,0,0,0,2.37,1.75l-.8,3.5a1.38,1.38,0,0,0,1,1.65,1.55,1.55,0,0,0,.31,0,1.36,1.36,0,0,0,1.33-1.07l.8-3.46.37,0a7.38,7.38,0,0,0,2.54-.46l1.91,3a1.38,1.38,0,0,0,1.9.43,1.36,1.36,0,0,0,.43-1.89l-1.89-3a7.24,7.24,0,0,0,1.75-2.38l3.5.8a1.1,1.1,0,0,0,.31,0,1.38,1.38,0,0,0,.3-2.72Zm-6.19-1.16a1.39,1.39,0,0,0-.83,1,1.33,1.33,0,0,0,.28,1.16,4.46,4.46,0,0,1-.81,1.11,1.39,1.39,0,0,0-1.25.08,1.32,1.32,0,0,0-.61,1,4.59,4.59,0,0,1-1.34.22,1.37,1.37,0,0,0-2.14-.55,4.6,4.6,0,0,1-1.1-.81,1.35,1.35,0,0,0-.09-1.25,1.32,1.32,0,0,0-1-.61,4.59,4.59,0,0,1-.23-1.34h0a1.35,1.35,0,0,0,.56-2.13,4.8,4.8,0,0,1,.79-1.1,1.25,1.25,0,0,0,.54.12,1.4,1.4,0,0,0,.73-.21,1.35,1.35,0,0,0,.61-1,4.28,4.28,0,0,1,1.34-.23,1.34,1.34,0,0,0,1,.83,1.06,1.06,0,0,0,.31,0,1.39,1.39,0,0,0,.86-.31,4.84,4.84,0,0,1,1.1.8,1.38,1.38,0,0,0,.08,1.25,1.41,1.41,0,0,0,1,.63,4.47,4.47,0,0,1,.22,1.33Z"/>
</svg>
